<?xml version="1.0" encoding="iso-8859-1"?>
<!-- Generator: Adobe Illustrator 26.0.1, SVG Export Plug-In . SVG Version: 6.00 Build 0)  -->
<svg version="1.1" id="Layer_1" xmlns="http://www.w3.org/2000/svg" xmlns:xlink="http://www.w3.org/1999/xlink" x="0px" y="0px"
	 viewBox="0 0 100 100" style="enable-background:new 0 0 100 100;" xml:space="preserve">
<g id="L6_1_" style="display:none;">
	<g style="display:inline;">
		<defs>
			<rect id="SVGID_1_" x="8" y="5" width="82.979" height="89"/>
		</defs>
		<clipPath id="SVGID_00000023982060554073098720000008995499309545742774_">
			<use xlink:href="#SVGID_1_"  style="overflow:visible;"/>
		</clipPath>
		<g style="clip-path:url(#SVGID_00000023982060554073098720000008995499309545742774_);">
			<defs>
				<rect id="SVGID_00000155117977921110666550000011892439460171049633_" x="8" y="5" width="82.979" height="89"/>
			</defs>
			<clipPath id="SVGID_00000048484538575048566490000012767650356756328365_">
				<use xlink:href="#SVGID_00000155117977921110666550000011892439460171049633_"  style="overflow:visible;"/>
			</clipPath>
			<g style="clip-path:url(#SVGID_00000048484538575048566490000012767650356756328365_);">
				<defs>
					<rect id="SVGID_00000118392156907052633910000012741295459540391830_" x="66.199" y="20.815" width="24.78" height="29.056"/>
				</defs>
				<clipPath id="SVGID_00000001653399227417803500000000518028863151430548_">
					<use xlink:href="#SVGID_00000118392156907052633910000012741295459540391830_"  style="overflow:visible;"/>
				</clipPath>
				<g style="clip-path:url(#SVGID_00000001653399227417803500000000518028863151430548_);">
					<defs>
						<rect id="SVGID_00000160901694602057711050000003791921188948870793_" x="66.199" y="20.815" width="24.78" height="29.056"/>
					</defs>
					<clipPath id="SVGID_00000101100251689038697640000008152505439915562126_">
						<use xlink:href="#SVGID_00000160901694602057711050000003791921188948870793_"  style="overflow:visible;"/>
					</clipPath>
					<path style="clip-path:url(#SVGID_00000101100251689038697640000008152505439915562126_);fill:#F26C2B;" d="M90.979,34.579
						v0.785c-0.175,1.003-0.404,2.007-0.524,3.01c-0.382,3.196-0.72,6.391-1.102,9.576c-0.065,0.556-0.24,1.091-0.425,1.92
						c-0.796-0.185-1.527-0.316-2.236-0.513c-0.687-0.196-1.385-0.436-2.05-0.698c-3.337-1.309-6.675-2.629-10.002-3.97
						c-0.294-0.12-0.502-0.436-0.96-0.851c1.102-0.949,2.127-1.821,3.25-2.803c-0.982-1.483-1.876-3.108-3.043-4.537
						c-1.331-1.636-2.837-3.141-4.363-4.603c-0.928-0.883-2.061-1.571-3.327-2.519c3.403-3.021,6.5-5.781,9.631-8.562
						c4.286,3.937,8.442,7.613,10.46,13.197c1.472-0.905,2.661-1.636,3.992-2.465C90.543,32.714,90.761,33.641,90.979,34.579"/>
				</g>
			</g>
			<g style="clip-path:url(#SVGID_00000048484538575048566490000012767650356756328365_);">
				<defs>
					<rect id="SVGID_00000034787751299994392040000007392427088731044758_" x="67.808" y="53.481" width="23.172" height="29.132"/>
				</defs>
				<clipPath id="SVGID_00000062891178998918898640000007791128967294065048_">
					<use xlink:href="#SVGID_00000034787751299994392040000007392427088731044758_"  style="overflow:visible;"/>
				</clipPath>
				<g style="clip-path:url(#SVGID_00000062891178998918898640000007791128967294065048_);">
					<defs>
						
							<rect id="SVGID_00000129911465031641805490000009852330620546264711_" x="67.808" y="53.481" width="23.172" height="29.132"/>
					</defs>
					<clipPath id="SVGID_00000059298228045173849900000007911856461813679010_">
						<use xlink:href="#SVGID_00000129911465031641805490000009852330620546264711_"  style="overflow:visible;"/>
					</clipPath>
					<path style="clip-path:url(#SVGID_00000059298228045173849900000007911856461813679010_);fill:#E1D153;" d="M90.979,59.524
						c-0.534,1.177-0.96,2.094-1.451,3.162c-1.145,4.363-3.981,7.974-6.926,11.507c1.385,1.059,2.399,1.833,3.718,2.837
						c-5.758,3.107-11.942,3.588-17.984,5.584c-0.207-1.047-0.414-1.756-0.48-2.487c-0.077-0.873-0.044-1.767-0.033-2.662
						c0-0.806,0.022-1.624,0.044-2.442c0.011-0.786,0.055-1.561,0.055-2.345v-6.86c1.8,0.184,2.956,1.167,4.166,1.952
						c3.73-4.003,5.552-8.955,7.199-14.288C83.334,55.576,87.064,57.505,90.979,59.524"/>
				</g>
			</g>
			<g style="clip-path:url(#SVGID_00000048484538575048566490000012767650356756328365_);">
				<defs>
					<rect id="SVGID_00000077307135893483203190000002153636645783126160_" x="8.989" y="53.972" width="24.151" height="29.47"/>
				</defs>
				<clipPath id="SVGID_00000037666437934053795790000008788178838729970859_">
					<use xlink:href="#SVGID_00000077307135893483203190000002153636645783126160_"  style="overflow:visible;"/>
				</clipPath>
				<g style="clip-path:url(#SVGID_00000037666437934053795790000008788178838729970859_);">
					<defs>
						<rect id="SVGID_00000172426501686645165910000003939494364138165676_" x="8.989" y="53.972" width="24.151" height="29.47"/>
					</defs>
					<clipPath id="SVGID_00000052072457668825878810000005599721490377949344_">
						<use xlink:href="#SVGID_00000172426501686645165910000003939494364138165676_"  style="overflow:visible;"/>
					</clipPath>
					<path style="clip-path:url(#SVGID_00000052072457668825878810000005599721490377949344_);fill:#AD70D6;" d="M31.472,73.146
						c0.6,0.534,1.047,1.222,1.669,1.952c-3.327,2.837-6.49,5.541-9.783,8.344c-0.774-0.938-1.396-1.689-2.192-2.649
						c-1.865-0.666-2.825-2.706-4.166-4.298c-1.243-1.471-2.465-2.999-2.847-5.028c-0.109-0.533-0.807-0.971-1.2-1.418
						c-1.265,0.807-2.443,1.56-3.948,2.509C8.862,65.991,9.8,59.948,11.021,53.971c0.873,0.143,1.451,0.131,1.941,0.328
						c0.545,0.229,0.993,0.653,1.527,0.882c3.959,1.222,7.798,2.792,11.648,4.766c-0.578,1.636-2.389,1.865-3.545,3.054
						c1.723,2.367,3.283,4.746,5.093,6.904C28.745,71.162,30.239,72.033,31.472,73.146"/>
				</g>
			</g>
			<g style="clip-path:url(#SVGID_00000048484538575048566490000012767650356756328365_);">
				<defs>
					<rect id="SVGID_00000017487781813469677420000016373787828098959494_" x="35.344" y="5.044" width="31.379" height="21.214"/>
				</defs>
				<clipPath id="SVGID_00000042695214227574956600000010027677638749459092_">
					<use xlink:href="#SVGID_00000017487781813469677420000016373787828098959494_"  style="overflow:visible;"/>
				</clipPath>
				<g style="clip-path:url(#SVGID_00000042695214227574956600000010027677638749459092_);">
					<defs>
						<rect id="SVGID_00000109711567788409658090000000327851222114700467_" x="35.344" y="5.044" width="31.379" height="21.214"/>
					</defs>
					<clipPath id="SVGID_00000003093072908872898170000002377744653244030342_">
						<use xlink:href="#SVGID_00000109711567788409658090000000327851222114700467_"  style="overflow:visible;"/>
					</clipPath>
					<path style="clip-path:url(#SVGID_00000003093072908872898170000002377744653244030342_);fill:#5699DE;" d="M52.554,5.044
						c5.541,3.25,9.337,8.006,14.168,12.117c-4.613,3.327-9.042,6.337-14.135,9.096v-4.515c-5.617-1.003-10.754,0.011-16.109,1.571
						c-0.393-4.472-0.753-8.584-1.134-12.903c2.999-0.436,5.726-1.036,8.464-1.178c2.759-0.153,5.53,0.153,8.356,0.262
						C52.293,8.054,52.401,6.713,52.554,5.044"/>
				</g>
			</g>
			<g style="clip-path:url(#SVGID_00000048484538575048566490000012767650356756328365_);">
				<defs>
					<rect id="SVGID_00000129199882757066015380000001262796936418656680_" x="8.196" y="19.648" width="22.272" height="28.849"/>
				</defs>
				<clipPath id="SVGID_00000140726097284140095190000008385944677541476529_">
					<use xlink:href="#SVGID_00000129199882757066015380000001262796936418656680_"  style="overflow:visible;"/>
				</clipPath>
				<g style="clip-path:url(#SVGID_00000140726097284140095190000008385944677541476529_);">
					<defs>
						<rect id="SVGID_00000124854423750146407090000011841973034497866388_" x="8.196" y="19.648" width="22.272" height="28.849"/>
					</defs>
					<clipPath id="SVGID_00000106146874816766518900000011142435547208447646_">
						<use xlink:href="#SVGID_00000124854423750146407090000011841973034497866388_"  style="overflow:visible;"/>
					</clipPath>
					<path style="clip-path:url(#SVGID_00000106146874816766518900000011142435547208447646_);fill:#E33A3A;" d="M30.468,34.994
						c0.011,0.36-0.164,0.709-0.305,1.254c-1.352-0.785-2.53-1.472-3.817-2.225c-0.982,1.494-2.05,2.901-2.901,4.439
						c-1.374,2.487-2.639,5.028-3.01,7.929c-0.087,0.687-0.644,1.309-1.058,2.105c-3.796-1.854-7.504-3.665-11.18-5.453
						c1.723-5.595,3.85-10.623,7.973-14.713c-1.385-1.047-2.498-1.887-3.894-2.945c5.672-2.923,11.659-3.872,17.462-5.737
						c0.229,0.807,0.469,1.298,0.48,1.8C30.326,25.963,30.414,30.479,30.468,34.994"/>
				</g>
			</g>
			<g style="clip-path:url(#SVGID_00000048484538575048566490000012767650356756328365_);">
				<defs>
					<rect id="SVGID_00000132809968860969241880000004046021237149747883_" x="32.399" y="71.826" width="31.183" height="20.679"/>
				</defs>
				<clipPath id="SVGID_00000107564289574560448670000016600847466927645858_">
					<use xlink:href="#SVGID_00000132809968860969241880000004046021237149747883_"  style="overflow:visible;"/>
				</clipPath>
				<g style="clip-path:url(#SVGID_00000107564289574560448670000016600847466927645858_);">
					<defs>
						
							<rect id="SVGID_00000037673044812074136670000008489313952870467718_" x="32.399" y="71.826" width="31.183" height="20.679"/>
					</defs>
					<clipPath id="SVGID_00000158014978008210576480000009472439513799824565_">
						<use xlink:href="#SVGID_00000037673044812074136670000008489313952870467718_"  style="overflow:visible;"/>
					</clipPath>
					<path style="clip-path:url(#SVGID_00000158014978008210576480000009472439513799824565_);fill:#55C95A;" d="M62.316,74.596
						c0.436,4.352,0.841,8.355,1.265,12.566c-1.199,0.175-2.105,0.293-3.032,0.424c-4.406,1.572-8.943,1.352-13.623,0.578
						c-0.142,1.56-0.251,2.912-0.371,4.341c-1.832-0.338-3.032-1.351-4.221-2.442c-3.076-2.814-6.184-5.584-9.282-8.367
						c-0.153-0.142-0.284-0.327-0.654-0.742c4.406-3.218,8.725-6.402,13.819-9.129v4.604c1.254,0.075,2.356,0.261,3.425,0.173
						c2.356-0.196,4.701-0.469,7.035-0.829C58.477,75.491,60.255,75.033,62.316,74.596"/>
				</g>
			</g>
		</g>
	</g>
</g>
<g id="L2_1_" style="display:none;">
	<g style="display:inline;">
		<defs>
			<rect id="SVGID_00000112622976653850923320000015816074116804813198_" x="34" y="33" width="31.359" height="34.868"/>
		</defs>
		<clipPath id="SVGID_00000181083200774364356550000015025368073182496387_">
			<use xlink:href="#SVGID_00000112622976653850923320000015816074116804813198_"  style="overflow:visible;"/>
		</clipPath>
		<g style="clip-path:url(#SVGID_00000181083200774364356550000015025368073182496387_);">
			<defs>
				<rect id="SVGID_00000144313945880844721090000008819818500233464474_" x="34" y="33" width="31.359" height="34.868"/>
			</defs>
			<clipPath id="SVGID_00000122002215006148533550000007135908100871334314_">
				<use xlink:href="#SVGID_00000144313945880844721090000008819818500233464474_"  style="overflow:visible;"/>
			</clipPath>
			<g style="clip-path:url(#SVGID_00000122002215006148533550000007135908100871334314_);">
				<defs>
					<rect id="SVGID_00000076586169826289933530000010719998371258839942_" x="35.264" y="32.997" width="30.098" height="18.779"/>
				</defs>
				<clipPath id="SVGID_00000098187259401113291710000014846664247841610429_">
					<use xlink:href="#SVGID_00000076586169826289933530000010719998371258839942_"  style="overflow:visible;"/>
				</clipPath>
				<g style="clip-path:url(#SVGID_00000098187259401113291710000014846664247841610429_);">
					<defs>
						
							<rect id="SVGID_00000030472211775181114640000000077734511993013121_" x="35.264" y="32.997" width="30.098" height="18.779"/>
					</defs>
					<clipPath id="SVGID_00000127762939964722935030000003836399333293956781_">
						<use xlink:href="#SVGID_00000030472211775181114640000000077734511993013121_"  style="overflow:visible;"/>
					</clipPath>
					<path style="clip-path:url(#SVGID_00000127762939964722935030000003836399333293956781_);fill:#523742;" d="M61.693,39.496
						c1.33-0.04,2.04-2.21,3.67-1.07c-0.27,4.39-0.53,8.73-0.81,13.35c-4.26-0.64-8.21-2.15-12.23-3.33
						c-0.22-0.34-0.4-0.63-0.63-0.97c1.08-0.93,2.19-1.87,3.32-2.84c-0.9-2.8-3.33-3.45-5.51-3.8c-3.55-0.57-4.85,2.27-5.92,4.63
						c-0.1,0.96-0.16,1.62-0.25,2.5c-2.83-0.65-5.4-1.24-8.01-1.85c-0.02-0.25-0.1-0.47-0.03-0.62c0.78-1.91,1.3-4.01,2.45-5.66
						c2.89-4.13,6.85-6.66,12.07-6.83c3.34-0.1,6.39,0.64,8.85,3.01C59.743,37.056,60.643,38.276,61.693,39.496"/>
				</g>
			</g>
			<g style="clip-path:url(#SVGID_00000122002215006148533550000007135908100871334314_);">
				<defs>
					<rect id="SVGID_00000101801120014931812330000017127001263417513886_" x="34.003" y="49.656" width="29.36" height="18.213"/>
				</defs>
				<clipPath id="SVGID_00000036941546974482203470000010919561631264720046_">
					<use xlink:href="#SVGID_00000101801120014931812330000017127001263417513886_"  style="overflow:visible;"/>
				</clipPath>
				<g style="clip-path:url(#SVGID_00000036941546974482203470000010919561631264720046_);">
					<defs>
						<rect id="SVGID_00000048496852499437852500000003022118545171882927_" x="34.003" y="49.656" width="29.36" height="18.213"/>
					</defs>
					<clipPath id="SVGID_00000052084793062510569160000012856010944985412280_">
						<use xlink:href="#SVGID_00000048496852499437852500000003022118545171882927_"  style="overflow:visible;"/>
					</clipPath>
					<path style="clip-path:url(#SVGID_00000052084793062510569160000012856010944985412280_);fill:#9F9EB1;" d="M63.363,55.446
						c-0.1,0.3-0.17,0.6-0.29,0.87c-1.52,3.45-3.13,6.93-6.51,8.9c-1.9,1.11-4.16,1.59-6.26,2.36c-2.15,0.78-4.14-0.2-6.16-0.61
						c-1.67-0.33-2.86-1.56-4-2.76c-0.82-0.86-1.62-1.74-2.62-2.83c-1.02,0.3-2.14,0.63-3.52,1.04c0.24-4.15,0.49-8.3,0.76-12.76
						c4,1.19,7.88,2.35,12.16,3.63c-1.18,1.02-2.12,1.83-3.03,2.63v1.59c1.49,2.59,3.87,3.08,6.63,3.14
						c3.42,0.08,4.13-2.66,5.59-4.93v-1.92C58.563,54.356,60.923,54.886,63.363,55.446"/>
				</g>
			</g>
		</g>
	</g>
</g>
<g id="L6_L2_00000127007482749258697790000017029672693084329883_">
	<g>
		<defs>
			<rect id="SVGID_00000067926661679338893600000009319044610583121042_" x="8" y="5" width="82.979" height="89"/>
		</defs>
		<clipPath id="SVGID_00000062887183760925922470000007274194484342211218_">
			<use xlink:href="#SVGID_00000067926661679338893600000009319044610583121042_"  style="overflow:visible;"/>
		</clipPath>
		<g style="clip-path:url(#SVGID_00000062887183760925922470000007274194484342211218_);">
			<defs>
				<rect id="SVGID_00000023251095371185489220000006643533540805157039_" x="66.199" y="20.814" width="24.78" height="29.056"/>
			</defs>
			<clipPath id="SVGID_00000163072538671254829950000001427060024616707761_">
				<use xlink:href="#SVGID_00000023251095371185489220000006643533540805157039_"  style="overflow:visible;"/>
			</clipPath>
			<path style="clip-path:url(#SVGID_00000163072538671254829950000001427060024616707761_);fill:#F26C2B;" d="M90.979,34.579v0.786
				c-0.175,1.003-0.403,2.006-0.523,3.01c-0.382,3.195-0.72,6.391-1.102,9.576c-0.065,0.556-0.24,1.09-0.426,1.92
				c-0.796-0.186-1.526-0.317-2.235-0.513c-0.688-0.196-1.386-0.436-2.051-0.698c-3.338-1.309-6.675-2.629-10.002-3.97
				c-0.294-0.12-0.502-0.437-0.96-0.851c1.102-0.949,2.127-1.822,3.251-2.803c-0.982-1.483-1.876-3.108-3.043-4.537
				c-1.331-1.636-2.837-3.141-4.363-4.603c-0.928-0.883-2.062-1.57-3.326-2.52c3.402-3.021,6.5-5.78,9.631-8.561
				c4.286,3.937,8.441,7.613,10.459,13.197c1.472-0.905,2.661-1.636,3.992-2.465C90.542,32.714,90.76,33.641,90.979,34.579"/>
		</g>
		<g style="clip-path:url(#SVGID_00000062887183760925922470000007274194484342211218_);">
			<defs>
				<rect id="SVGID_00000123434935716228658550000009547136054983206075_" x="67.808" y="53.481" width="23.171" height="29.132"/>
			</defs>
			<clipPath id="SVGID_00000093166030962050267520000000814293149962286238_">
				<use xlink:href="#SVGID_00000123434935716228658550000009547136054983206075_"  style="overflow:visible;"/>
			</clipPath>
			<path style="clip-path:url(#SVGID_00000093166030962050267520000000814293149962286238_);fill:#E1D153;" d="M90.979,59.524
				c-0.534,1.177-0.96,2.094-1.451,3.161c-1.145,4.363-3.981,7.975-6.926,11.507c1.386,1.06,2.399,1.834,3.719,2.837
				c-5.758,3.107-11.943,3.589-17.985,5.584c-0.207-1.047-0.415-1.756-0.48-2.486c-0.077-0.873-0.043-1.767-0.032-2.663
				c0-0.806,0.021-1.624,0.044-2.442c0.01-0.786,0.053-1.56,0.053-2.345v-6.86c1.8,0.185,2.956,1.167,4.167,1.952
				c3.73-4.003,5.552-8.954,7.199-14.288C83.333,55.575,87.063,57.504,90.979,59.524"/>
		</g>
		<g style="clip-path:url(#SVGID_00000062887183760925922470000007274194484342211218_);">
			<defs>
				<rect id="SVGID_00000182528749060238229240000016432849091807097229_" x="8.989" y="53.971" width="24.151" height="29.471"/>
			</defs>
			<clipPath id="SVGID_00000057833313732588457200000018440992520047535278_">
				<use xlink:href="#SVGID_00000182528749060238229240000016432849091807097229_"  style="overflow:visible;"/>
			</clipPath>
			<path style="clip-path:url(#SVGID_00000057833313732588457200000018440992520047535278_);fill:#AD70D6;" d="M31.472,73.146
				c0.6,0.534,1.047,1.222,1.668,1.952c-3.326,2.837-6.489,5.541-9.783,8.344c-0.774-0.938-1.396-1.69-2.192-2.65
				c-1.865-0.666-2.825-2.705-4.167-4.297c-1.243-1.472-2.464-2.999-2.846-5.029c-0.109-0.533-0.807-0.97-1.2-1.418
				c-1.265,0.808-2.443,1.56-3.948,2.509C8.862,65.992,9.8,59.949,11.022,53.972c0.872,0.143,1.45,0.131,1.941,0.328
				c0.546,0.23,0.992,0.654,1.527,0.883c3.959,1.221,7.798,2.792,11.649,4.766c-0.579,1.635-2.389,1.865-3.545,3.053
				c1.723,2.368,3.283,4.747,5.093,6.905C28.745,71.162,30.24,72.034,31.472,73.146"/>
		</g>
		<g style="clip-path:url(#SVGID_00000062887183760925922470000007274194484342211218_);">
			<defs>
				<rect id="SVGID_00000120516707819554200710000000539949297994375842_" x="35.344" y="5.044" width="31.378" height="21.213"/>
			</defs>
			<clipPath id="SVGID_00000051341871475206080820000017559214499178281862_">
				<use xlink:href="#SVGID_00000120516707819554200710000000539949297994375842_"  style="overflow:visible;"/>
			</clipPath>
			<path style="clip-path:url(#SVGID_00000051341871475206080820000017559214499178281862_);fill:#5699DE;" d="M52.554,5.044
				c5.541,3.25,9.338,8.006,14.168,12.118c-4.612,3.326-9.041,6.337-14.135,9.096v-4.515c-5.617-1.004-10.754,0.01-16.109,1.57
				c-0.393-4.472-0.753-8.583-1.134-12.903c2.999-0.436,5.726-1.036,8.463-1.178c2.76-0.152,5.53,0.153,8.355,0.262
				C52.293,8.054,52.402,6.713,52.554,5.044"/>
		</g>
		<g style="clip-path:url(#SVGID_00000062887183760925922470000007274194484342211218_);">
			<defs>
				<rect id="SVGID_00000054229786937854408020000007634019288268015269_" x="8.196" y="19.648" width="22.272" height="28.849"/>
			</defs>
			<clipPath id="SVGID_00000070105386540114932830000005719936660085194118_">
				<use xlink:href="#SVGID_00000054229786937854408020000007634019288268015269_"  style="overflow:visible;"/>
			</clipPath>
			<path style="clip-path:url(#SVGID_00000070105386540114932830000005719936660085194118_);fill:#E33A3A;" d="M30.468,34.994
				c0.011,0.36-0.164,0.709-0.306,1.254c-1.352-0.785-2.53-1.472-3.817-2.225c-0.981,1.494-2.05,2.902-2.901,4.439
				c-1.374,2.487-2.64,5.029-3.01,7.929c-0.088,0.688-0.644,1.31-1.058,2.105c-3.796-1.854-7.504-3.664-11.18-5.453
				c1.724-5.595,3.85-10.623,7.973-14.713c-1.385-1.047-2.497-1.887-3.894-2.945c5.672-2.923,11.66-3.872,17.462-5.737
				c0.229,0.807,0.469,1.298,0.48,1.8C30.326,25.963,30.413,30.478,30.468,34.994"/>
		</g>
		<g style="clip-path:url(#SVGID_00000062887183760925922470000007274194484342211218_);">
			<defs>
				<rect id="SVGID_00000053539363948536862100000003830161600109494661_" x="32.399" y="71.826" width="31.182" height="20.68"/>
			</defs>
			<clipPath id="SVGID_00000178204086105405911930000003111700955460288907_">
				<use xlink:href="#SVGID_00000053539363948536862100000003830161600109494661_"  style="overflow:visible;"/>
			</clipPath>
			<path style="clip-path:url(#SVGID_00000178204086105405911930000003111700955460288907_);fill:#55C95A;" d="M62.316,74.597
				c0.436,4.352,0.841,8.354,1.265,12.565c-1.199,0.175-2.105,0.294-3.033,0.425c-4.406,1.572-8.942,1.352-13.622,0.577
				c-0.142,1.561-0.251,2.912-0.371,4.342c-1.832-0.339-3.032-1.351-4.221-2.442c-3.076-2.815-6.184-5.584-9.282-8.367
				c-0.152-0.142-0.283-0.328-0.654-0.742c4.406-3.217,8.726-6.402,13.819-9.129v4.604c1.254,0.075,2.356,0.261,3.425,0.174
				c2.356-0.196,4.7-0.469,7.034-0.829C58.476,75.492,60.254,75.033,62.316,74.597"/>
		</g>
		<g style="clip-path:url(#SVGID_00000062887183760925922470000007274194484342211218_);">
			<defs>
				<rect id="SVGID_00000078041304291153414850000001307226536598843794_" x="35.265" y="33.001" width="30.095" height="18.776"/>
			</defs>
			<clipPath id="SVGID_00000111170670418308552850000001507636168882465430_">
				<use xlink:href="#SVGID_00000078041304291153414850000001307226536598843794_"  style="overflow:visible;"/>
			</clipPath>
			<path style="clip-path:url(#SVGID_00000111170670418308552850000001507636168882465430_);fill:#523742;" d="M61.692,39.496
				c1.33-0.04,2.04-2.21,3.67-1.07c-0.27,4.39-0.529,8.73-0.81,13.35c-4.259-0.64-8.21-2.15-12.23-3.33
				c-0.22-0.34-0.4-0.63-0.63-0.97c1.08-0.93,2.19-1.87,3.32-2.84c-0.9-2.8-3.33-3.45-5.509-3.8c-3.551-0.57-4.851,2.27-5.921,4.63
				c-0.099,0.96-0.16,1.62-0.25,2.5c-2.829-0.65-5.4-1.24-8.01-1.85c-0.02-0.25-0.1-0.47-0.03-0.62c0.78-1.91,1.3-4.01,2.45-5.66
				c2.89-4.13,6.85-6.66,12.07-6.83c3.34-0.1,6.391,0.64,8.851,3.01C59.743,37.056,60.642,38.276,61.692,39.496"/>
		</g>
		<g style="clip-path:url(#SVGID_00000062887183760925922470000007274194484342211218_);">
			<defs>
				<rect id="SVGID_00000036212309943422814800000013080697427302470799_" x="34.003" y="49.656" width="29.36" height="18.212"/>
			</defs>
			<clipPath id="SVGID_00000064321896577151748000000010690369845609505465_">
				<use xlink:href="#SVGID_00000036212309943422814800000013080697427302470799_"  style="overflow:visible;"/>
			</clipPath>
			<path style="clip-path:url(#SVGID_00000064321896577151748000000010690369845609505465_);fill:#9F9EB1;" d="M63.362,55.446
				c-0.1,0.3-0.17,0.6-0.29,0.87c-1.52,3.449-3.13,6.93-6.51,8.9c-1.899,1.11-4.16,1.589-6.26,2.36c-2.149,0.78-4.14-0.2-6.16-0.61
				c-1.67-0.331-2.86-1.56-4-2.76c-0.82-0.861-1.62-1.74-2.62-2.83c-1.02,0.299-2.139,0.63-3.52,1.04
				c0.24-4.151,0.49-8.3,0.76-12.761c4,1.191,7.88,2.351,12.16,3.631c-1.18,1.019-2.12,1.83-3.03,2.63v1.59
				c1.491,2.589,3.87,3.08,6.63,3.14c3.42,0.079,4.13-2.66,5.59-4.93v-1.92C58.562,54.356,60.923,54.885,63.362,55.446"/>
		</g>
	</g>
</g>
</svg>
